<svg id="svg" version="1.1" xmlns="http://www.w3.org/2000/svg" xmlns:xlink="http://www.w3.org/1999/xlink" width="400" height="394.581519109821" viewBox="0, 0, 400,394.581519109821"><g id="svgg"><path id="path0" d="M236.091 23.271 C 236.038 23.324,235.298 23.418,234.446 23.478 C 232.729 23.600,232.887 23.575,228.190 24.474 C 227.942 24.522,227.579 24.611,227.383 24.673 C 227.187 24.736,226.867 24.819,226.672 24.859 C 222.340 25.742,210.990 31.087,208.309 33.505 C 208.089 33.703,207.813 33.866,207.696 33.866 C 207.579 33.866,207.454 33.934,207.418 34.018 C 207.383 34.102,206.701 34.661,205.902 35.259 C 202.240 38.006,196.644 43.201,194.161 46.159 C 191.540 49.282,188.971 52.692,187.615 54.849 C 183.773 60.959,180.666 68.049,180.060 72.084 C 179.423 76.327,179.462 78.443,180.244 82.194 C 180.496 83.400,181.797 86.804,182.419 87.886 C 182.808 88.562,183.222 89.310,183.339 89.549 C 183.455 89.787,183.616 89.983,183.696 89.984 C 183.776 89.985,183.841 90.079,183.841 90.193 C 183.841 90.307,183.950 90.522,184.083 90.670 C 184.216 90.818,184.413 91.052,184.521 91.188 C 184.630 91.325,185.063 91.872,185.484 92.404 C 185.905 92.937,188.084 95.204,190.326 97.443 C 196.947 104.056,196.585 103.439,196.231 107.499 C 196.129 108.670,195.995 110.324,195.933 111.176 C 195.782 113.237,194.709 126.514,194.564 128.106 C 194.502 128.797,194.414 129.421,194.369 129.494 C 194.268 129.657,191.244 130.360,189.937 130.523 C 189.405 130.590,188.795 130.682,188.582 130.729 C 188.370 130.775,185.975 130.946,183.261 131.110 C 177.017 131.485,169.851 131.970,168.844 132.084 C 168.418 132.132,167.721 132.215,167.296 132.267 C 166.870 132.319,165.999 132.409,165.360 132.467 C 162.075 132.768,154.672 134.032,150.600 134.989 C 149.506 135.246,148.418 135.496,148.181 135.544 C 146.943 135.795,139.530 138.113,138.268 138.643 C 137.949 138.777,137.383 138.998,137.010 139.133 C 136.281 139.396,136.076 139.483,133.430 140.648 C 126.997 143.481,122.009 146.505,116.014 151.207 C 111.692 154.597,104.631 161.982,98.781 169.231 C 98.180 169.976,97.501 170.804,97.272 171.072 C 97.043 171.339,96.597 171.905,96.281 172.330 C 95.965 172.754,95.634 173.188,95.546 173.295 C 95.331 173.553,92.688 177.069,92.261 177.663 C 92.075 177.921,91.556 178.655,91.106 179.294 C 90.657 179.932,90.217 180.542,90.129 180.648 C 89.804 181.043,85.341 187.749,85.341 187.844 C 85.341 187.898,85.145 188.217,84.906 188.552 C 84.666 188.887,84.311 189.458,84.115 189.821 C 83.920 190.183,83.531 190.837,83.251 191.273 C 82.971 191.709,82.578 192.371,82.378 192.743 C 82.178 193.116,81.876 193.638,81.707 193.904 C 80.580 195.674,76.901 203.045,75.864 205.612 C 75.520 206.463,75.123 207.421,74.982 207.741 C 72.720 212.865,71.744 220.141,72.919 223.125 C 74.737 227.746,81.107 229.520,87.179 227.095 C 89.479 226.178,93.440 223.891,94.628 222.795 C 94.893 222.551,95.163 222.351,95.227 222.351 C 95.292 222.351,95.554 222.167,95.810 221.942 C 96.066 221.717,96.580 221.304,96.952 221.024 C 97.325 220.744,97.673 220.461,97.726 220.396 C 97.779 220.330,98.563 219.644,99.468 218.871 C 101.283 217.321,108.205 210.407,110.521 207.832 C 112.121 206.053,112.623 205.489,115.339 202.419 C 117.715 199.733,122.238 195.163,124.011 193.657 C 125.468 192.420,126.174 191.813,126.851 191.215 C 128.262 189.969,134.125 185.776,134.458 185.776 C 134.567 185.776,134.685 185.704,134.720 185.616 C 134.756 185.528,135.440 185.071,136.240 184.600 C 137.040 184.130,137.955 183.588,138.272 183.398 C 139.185 182.848,144.555 180.175,145.622 179.739 C 146.154 179.522,146.938 179.192,147.363 179.007 C 148.313 178.594,151.722 177.506,153.362 177.092 C 162.435 174.804,165.733 178.308,165.727 190.227 C 165.725 193.783,165.634 195.784,165.403 197.388 C 165.227 198.612,165.031 200.005,164.967 200.484 C 164.855 201.325,164.419 203.747,164.202 204.741 C 164.143 205.007,164.047 205.515,163.988 205.869 C 163.731 207.407,162.257 213.066,161.661 214.804 C 161.607 214.964,161.555 215.138,161.547 215.191 C 161.532 215.292,161.295 215.962,160.177 219.061 C 158.668 223.248,155.545 230.032,152.651 235.414 C 149.790 240.732,149.516 241.238,148.664 242.767 C 147.499 244.860,146.966 245.847,145.531 248.573 C 144.858 249.850,144.033 251.374,143.697 251.959 C 142.859 253.419,141.004 257.247,139.336 260.958 C 138.571 262.661,137.785 264.403,137.591 264.828 C 137.396 265.254,137.053 266.038,136.828 266.570 C 135.213 270.393,133.162 274.436,130.301 279.439 C 128.752 282.146,124.875 287.678,123.057 289.776 C 120.285 292.972,118.171 295.057,115.487 297.241 C 113.776 298.633,110.849 300.726,110.614 300.726 C 110.561 300.726,110.143 300.975,109.686 301.279 C 108.195 302.270,102.639 304.897,101.693 305.058 C 101.587 305.076,101.402 305.152,101.283 305.226 C 101.164 305.301,100.598 305.490,100.025 305.648 C 96.541 306.603,96.777 306.549,94.146 307.011 C 93.295 307.160,92.032 307.339,91.340 307.409 C 90.648 307.478,89.821 307.566,89.502 307.604 C 87.990 307.785,83.807 308.072,81.277 308.168 C 65.024 308.788,62.394 309.023,55.126 310.500 C 53.037 310.925,47.947 313.102,46.459 314.208 C 42.882 316.866,40.147 320.855,39.384 324.528 C 39.351 324.688,39.179 325.318,39.001 325.928 C 38.823 326.538,38.673 327.104,38.668 327.185 C 38.662 327.267,38.581 327.535,38.488 327.780 C 38.395 328.025,38.270 328.504,38.211 328.844 C 38.153 329.184,37.986 329.985,37.841 330.624 C 35.165 342.413,35.483 359.563,38.526 367.492 C 42.328 377.404,50.919 376.720,59.222 365.844 C 59.547 365.418,59.918 364.940,60.047 364.780 C 60.175 364.620,60.926 363.488,61.715 362.264 C 62.504 361.040,63.397 359.664,63.699 359.207 C 64.001 358.749,64.248 358.349,64.248 358.319 C 64.248 358.288,64.823 357.226,65.526 355.958 C 66.921 353.443,70.224 346.929,71.286 344.598 C 72.899 341.059,79.175 340.069,94.340 340.961 C 115.728 342.218,125.513 341.401,131.235 337.881 C 131.754 337.561,132.257 337.300,132.353 337.300 C 132.448 337.300,132.556 337.235,132.592 337.155 C 132.627 337.075,133.396 336.450,134.301 335.765 C 135.823 334.613,140.632 329.965,141.924 328.399 C 142.231 328.026,142.985 327.155,143.598 326.463 C 145.165 324.698,146.449 323.177,150.379 318.433 C 153.011 315.255,155.955 311.796,157.050 310.595 C 157.389 310.223,158.174 309.352,158.794 308.660 C 162.177 304.885,167.702 299.720,170.779 297.456 C 171.524 296.908,172.237 296.376,172.362 296.275 C 175.193 293.991,181.660 290.969,185.389 290.188 C 189.529 289.320,196.674 289.315,202.129 290.177 C 202.448 290.228,203.058 290.318,203.483 290.378 C 205.291 290.634,208.794 291.283,209.869 291.562 C 210.508 291.727,211.183 291.897,211.369 291.940 C 211.555 291.982,211.882 292.061,212.095 292.114 C 212.308 292.167,212.655 292.249,212.867 292.296 C 214.862 292.738,221.717 294.875,223.416 295.584 C 223.735 295.717,225.389 296.375,227.092 297.044 C 233.520 299.572,242.694 304.186,248.760 307.941 C 250.461 308.994,252.679 310.422,252.870 310.587 C 252.999 310.698,253.178 310.789,253.269 310.789 C 253.360 310.789,253.605 310.941,253.814 311.127 C 254.023 311.313,254.816 311.884,255.577 312.395 C 257.852 313.924,259.531 316.974,260.177 320.755 C 260.232 321.074,260.322 321.553,260.378 321.819 C 260.786 323.761,261.152 326.301,261.744 331.301 C 261.829 332.022,262.208 334.836,262.709 338.469 C 262.816 339.246,262.868 339.532,263.280 341.558 C 266.062 355.245,271.609 362.541,282.342 366.627 C 284.215 367.341,290.166 369.140,291.297 369.335 C 291.640 369.394,292.835 369.604,293.953 369.802 C 298.513 370.612,305.436 370.805,308.950 370.221 C 309.589 370.115,310.424 369.982,310.805 369.926 C 311.187 369.870,311.622 369.780,311.773 369.726 C 311.923 369.673,312.264 369.587,312.530 369.537 C 322.111 367.706,328.609 360.133,326.325 353.459 C 326.252 353.246,326.188 353.022,326.183 352.961 C 326.151 352.593,324.632 350.439,323.976 349.832 C 321.779 347.799,318.709 346.732,311.047 345.336 C 308.936 344.951,306.861 344.544,306.435 344.432 C 306.010 344.319,305.531 344.201,305.370 344.170 C 303.722 343.853,300.986 342.682,299.797 341.785 C 298.685 340.946,298.123 339.690,297.749 337.204 C 297.701 336.884,297.487 335.535,297.274 334.204 C 297.060 332.874,296.843 331.480,296.792 331.108 C 296.608 329.771,296.222 327.338,295.917 325.593 C 295.805 324.954,295.672 324.170,295.621 323.851 C 295.570 323.532,295.437 322.791,295.327 322.206 C 295.216 321.621,295.088 320.924,295.042 320.658 C 294.870 319.669,293.740 314.721,293.467 313.770 C 293.312 313.228,293.155 312.618,293.119 312.415 C 292.477 308.868,288.860 300.054,286.336 295.888 C 285.724 294.877,285.119 293.875,284.992 293.662 C 284.864 293.449,284.717 293.232,284.664 293.179 C 284.611 293.125,284.045 292.389,283.406 291.542 C 280.407 287.564,275.379 283.093,271.408 280.872 C 271.195 280.752,270.150 280.153,269.086 279.540 C 266.515 278.059,263.714 276.657,260.184 275.084 C 256.460 273.424,256.406 273.401,254.572 272.666 C 253.720 272.324,252.762 271.933,252.443 271.796 C 252.124 271.658,250.600 271.050,249.057 270.444 C 247.513 269.839,245.989 269.231,245.670 269.094 C 245.351 268.957,243.957 268.386,242.574 267.826 C 233.875 264.305,228.171 260.698,226.899 257.914 C 225.824 255.562,225.557 249.944,226.317 245.670 C 226.487 244.712,226.672 243.667,226.728 243.348 C 226.850 242.654,227.525 239.908,227.776 239.090 C 228.406 237.033,229.398 234.028,229.501 233.866 C 229.569 233.759,229.741 233.324,229.884 232.898 C 230.503 231.057,232.336 227.284,233.866 224.704 C 235.998 221.107,238.563 218.070,240.858 216.426 C 242.911 214.956,243.595 214.753,247.933 214.328 C 249.987 214.127,254.944 213.437,258.539 212.851 C 262.821 212.153,262.188 212.267,265.989 211.512 C 267.692 211.173,269.245 210.865,269.440 210.827 C 269.635 210.788,269.939 210.713,270.117 210.659 C 270.295 210.606,270.658 210.523,270.924 210.476 C 271.662 210.344,277.570 208.843,279.536 208.288 C 280.493 208.018,281.364 207.778,281.471 207.754 C 282.662 207.495,290.126 204.951,291.727 204.258 C 292.992 203.711,295.409 202.718,295.501 202.709 C 296.192 202.636,303.260 198.792,305.273 197.394 C 306.791 196.340,310.091 194.825,311.853 194.375 C 312.172 194.293,312.477 194.213,312.530 194.197 C 314.683 193.546,317.086 193.204,322.109 192.833 C 331.180 192.163,334.341 191.284,338.016 188.408 C 341.079 186.012,344.519 180.195,345.524 175.714 C 345.560 175.554,345.691 174.988,345.815 174.456 C 346.162 172.969,346.159 172.987,346.391 170.635 C 346.594 168.572,346.479 165.956,346.092 163.812 C 345.793 162.163,343.716 157.101,343.114 156.555 C 343.055 156.502,342.621 155.936,342.149 155.298 C 340.358 152.875,334.897 148.815,333.428 148.815 C 333.337 148.815,333.017 148.714,332.717 148.591 C 331.996 148.296,332.069 148.315,329.850 147.828 C 326.891 147.179,323.541 147.217,319.884 147.941 C 318.702 148.174,314.050 150.303,313.351 150.929 C 313.165 151.097,312.393 151.734,311.637 152.346 C 310.203 153.506,307.768 155.970,305.973 158.075 C 304.739 159.523,303.562 160.426,302.908 160.426 C 299.492 160.426,295.668 163.520,289.450 171.314 C 285.705 176.007,285.558 176.138,283.289 176.799 C 281.055 177.449,274.154 177.335,270.924 176.595 C 270.658 176.534,270.179 176.437,269.860 176.380 C 269.540 176.323,268.800 176.146,268.215 175.987 C 267.629 175.828,266.984 175.661,266.780 175.614 C 265.994 175.436,264.430 174.879,264.199 174.697 C 264.066 174.591,263.957 174.556,263.957 174.618 C 263.957 174.862,260.256 173.144,258.345 172.014 C 257.386 171.447,254.391 169.277,254.314 169.094 C 254.278 169.009,254.163 168.940,254.058 168.940 C 253.953 168.940,253.460 168.657,252.962 168.312 C 251.855 167.543,251.836 167.532,249.496 166.300 C 248.456 165.752,247.039 165.069,246.347 164.782 C 245.656 164.494,244.828 164.145,244.509 164.004 C 244.190 163.864,243.449 163.600,242.864 163.417 C 242.279 163.233,241.713 163.032,241.606 162.970 C 241.500 162.907,241.326 162.842,241.219 162.824 C 241.113 162.807,240.242 162.549,239.284 162.251 C 238.326 161.953,237.408 161.685,237.243 161.655 C 231.366 160.593,227.761 157.253,226.923 152.094 C 226.864 151.727,226.718 150.948,226.600 150.363 C 226.065 147.711,226.220 141.015,226.895 137.656 C 227.688 133.708,228.671 132.192,232.704 128.689 C 233.343 128.134,234.083 127.490,234.349 127.257 C 235.914 125.889,238.752 123.618,243.541 119.904 C 246.522 117.593,249.265 115.456,249.637 115.156 C 250.010 114.855,251.055 114.031,251.959 113.324 C 252.864 112.618,253.953 111.750,254.378 111.396 C 254.804 111.042,256.067 109.998,257.184 109.076 C 260.892 106.016,263.162 103.967,266.736 100.457 C 273.687 93.630,277.639 88.528,280.696 82.438 C 282.485 78.875,283.399 76.414,284.004 73.537 C 284.060 73.270,284.189 72.681,284.290 72.227 C 284.391 71.772,284.522 71.076,284.581 70.679 C 284.640 70.281,284.730 69.739,284.781 69.473 C 285.618 65.087,284.307 54.836,282.343 50.411 C 281.117 47.649,280.112 45.517,279.927 45.283 C 279.800 45.123,279.412 44.514,279.063 43.928 C 277.037 40.524,273.270 36.183,270.247 33.768 C 269.715 33.343,269.236 32.951,269.182 32.898 C 268.849 32.565,265.459 30.325,264.054 29.510 C 259.317 26.762,253.262 24.755,246.831 23.802 C 244.303 23.428,236.327 23.033,236.091 23.271 " stroke="none" fill="#646464" fill-rule="evenodd"></path><path id="path1" d="M199.988 40.106 L 199.419 40.735 200.048 40.167 C 200.635 39.637,200.766 39.478,200.617 39.478 C 200.583 39.478,200.300 39.761,199.988 40.106 M189.840 97.013 C 189.840 97.046,190.123 97.329,190.469 97.642 L 191.098 98.210 190.530 97.581 C 190.000 96.995,189.840 96.863,189.840 97.013 M267.147 100.097 L 265.215 102.080 267.199 100.149 C 269.041 98.355,269.270 98.113,269.130 98.113 C 269.102 98.113,268.209 99.006,267.147 100.097 M231.144 130.092 L 230.576 130.721 231.205 130.152 C 231.791 129.623,231.923 129.463,231.773 129.463 C 231.740 129.463,231.457 129.746,231.144 130.092 M112.036 154.572 L 111.369 155.298 112.095 154.631 C 112.770 154.010,112.909 153.846,112.762 153.846 C 112.729 153.846,112.403 154.173,112.036 154.572 M107.983 158.587 C 107.513 159.066,107.171 159.458,107.225 159.458 C 107.278 159.458,107.706 159.066,108.176 158.587 C 108.646 158.108,108.987 157.716,108.934 157.716 C 108.881 157.716,108.453 158.108,107.983 158.587 M304.983 158.974 C 304.513 159.453,304.172 159.845,304.225 159.845 C 304.278 159.845,304.707 159.453,305.177 158.974 C 305.647 158.495,305.988 158.104,305.934 158.104 C 305.881 158.104,305.453 158.495,304.983 158.974 M294.618 165.119 L 294.049 165.747 294.678 165.179 C 295.265 164.649,295.396 164.490,295.247 164.490 C 295.213 164.490,294.930 164.773,294.618 165.119 M72.242 219.158 C 72.243 219.797,72.279 220.035,72.322 219.687 C 72.365 219.339,72.364 218.817,72.320 218.526 C 72.276 218.235,72.241 218.520,72.242 219.158 M81.132 228.295 C 81.425 228.340,81.904 228.340,82.196 228.295 C 82.489 228.251,82.250 228.215,81.664 228.215 C 81.079 228.215,80.839 228.251,81.132 228.295 M228.350 259.990 C 228.711 260.363,229.050 260.668,229.103 260.668 C 229.157 260.668,228.905 260.363,228.544 259.990 C 228.183 259.618,227.844 259.313,227.791 259.313 C 227.737 259.313,227.989 259.618,228.350 259.990 M189.695 289.635 C 189.881 289.684,190.186 289.684,190.373 289.635 C 190.559 289.586,190.406 289.547,190.034 289.547 C 189.661 289.547,189.509 289.586,189.695 289.635 M194.630 289.638 C 194.869 289.684,195.261 289.684,195.501 289.638 C 195.740 289.592,195.544 289.554,195.065 289.554 C 194.586 289.554,194.390 289.592,194.630 289.638 M119.485 293.614 L 118.916 294.243 119.545 293.674 C 119.891 293.362,120.174 293.079,120.174 293.046 C 120.174 292.896,120.014 293.028,119.485 293.614 M162.552 304.741 L 159.942 307.402 162.603 304.792 C 164.066 303.357,165.264 302.159,165.264 302.131 C 165.264 301.993,164.976 302.269,162.552 304.741 M84.228 308.019 C 84.415 308.068,84.719 308.068,84.906 308.019 C 85.092 307.971,84.940 307.931,84.567 307.931 C 84.194 307.931,84.042 307.971,84.228 308.019 M80.358 308.213 C 80.544 308.261,80.849 308.261,81.035 308.213 C 81.222 308.164,81.069 308.124,80.697 308.124 C 80.324 308.124,80.172 308.164,80.358 308.213 M75.036 308.409 C 75.276 308.456,75.668 308.456,75.907 308.409 C 76.147 308.363,75.951 308.326,75.472 308.326 C 74.993 308.326,74.797 308.363,75.036 308.409 M84.132 340.733 C 84.690 340.772,85.605 340.772,86.164 340.733 C 86.722 340.694,86.265 340.662,85.148 340.662 C 84.030 340.662,83.573 340.694,84.132 340.733 M103.387 341.498 C 103.573 341.546,103.878 341.546,104.064 341.498 C 104.250 341.449,104.098 341.409,103.725 341.409 C 103.353 341.409,103.200 341.449,103.387 341.498 M110.263 341.701 C 110.825 341.740,111.696 341.740,112.198 341.700 C 112.700 341.660,112.240 341.628,111.176 341.628 C 110.111 341.629,109.701 341.661,110.263 341.701 M271.988 360.329 C 272.404 360.755,272.788 361.103,272.841 361.103 C 272.894 361.103,272.598 360.755,272.182 360.329 C 271.766 359.903,271.383 359.555,271.329 359.555 C 271.276 359.555,271.573 359.903,271.988 360.329 M41.026 372.001 C 41.026 372.034,41.309 372.317,41.655 372.629 L 42.284 373.198 41.715 372.569 C 41.185 371.983,41.026 371.851,41.026 372.001 " stroke="none" fill="#686464" fill-rule="evenodd"></path><path id="path2" d="M199.988 40.106 L 199.419 40.735 200.048 40.167 C 200.635 39.637,200.766 39.478,200.617 39.478 C 200.583 39.478,200.300 39.761,199.988 40.106 M189.840 97.013 C 189.840 97.046,190.123 97.329,190.469 97.642 L 191.098 98.210 190.530 97.581 C 190.000 96.995,189.840 96.863,189.840 97.013 M267.147 100.097 L 265.215 102.080 267.199 100.149 C 269.041 98.355,269.270 98.113,269.130 98.113 C 269.102 98.113,268.209 99.006,267.147 100.097 M231.144 130.092 L 230.576 130.721 231.205 130.152 C 231.791 129.623,231.923 129.463,231.773 129.463 C 231.740 129.463,231.457 129.746,231.144 130.092 M112.036 154.572 L 111.369 155.298 112.095 154.631 C 112.770 154.010,112.909 153.846,112.762 153.846 C 112.729 153.846,112.403 154.173,112.036 154.572 M107.983 158.587 C 107.513 159.066,107.171 159.458,107.225 159.458 C 107.278 159.458,107.706 159.066,108.176 158.587 C 108.646 158.108,108.987 157.716,108.934 157.716 C 108.881 157.716,108.453 158.108,107.983 158.587 M304.983 158.974 C 304.513 159.453,304.172 159.845,304.225 159.845 C 304.278 159.845,304.707 159.453,305.177 158.974 C 305.647 158.495,305.988 158.104,305.934 158.104 C 305.881 158.104,305.453 158.495,304.983 158.974 M294.618 165.119 L 294.049 165.747 294.678 165.179 C 295.265 164.649,295.396 164.490,295.247 164.490 C 295.213 164.490,294.930 164.773,294.618 165.119 M72.242 219.158 C 72.243 219.797,72.279 220.035,72.322 219.687 C 72.365 219.339,72.364 218.817,72.320 218.526 C 72.276 218.235,72.241 218.520,72.242 219.158 M81.132 228.295 C 81.425 228.340,81.904 228.340,82.196 228.295 C 82.489 228.251,82.250 228.215,81.664 228.215 C 81.079 228.215,80.839 228.251,81.132 228.295 M228.350 259.990 C 228.711 260.363,229.050 260.668,229.103 260.668 C 229.157 260.668,228.905 260.363,228.544 259.990 C 228.183 259.618,227.844 259.313,227.791 259.313 C 227.737 259.313,227.989 259.618,228.350 259.990 M189.695 289.635 C 189.881 289.684,190.186 289.684,190.373 289.635 C 190.559 289.586,190.406 289.547,190.034 289.547 C 189.661 289.547,189.509 289.586,189.695 289.635 M194.630 289.638 C 194.869 289.684,195.261 289.684,195.501 289.638 C 195.740 289.592,195.544 289.554,195.065 289.554 C 194.586 289.554,194.390 289.592,194.630 289.638 M119.485 293.614 L 118.916 294.243 119.545 293.674 C 119.891 293.362,120.174 293.079,120.174 293.046 C 120.174 292.896,120.014 293.028,119.485 293.614 M162.552 304.741 L 159.942 307.402 162.603 304.792 C 164.066 303.357,165.264 302.159,165.264 302.131 C 165.264 301.993,164.976 302.269,162.552 304.741 M84.228 308.019 C 84.415 308.068,84.719 308.068,84.906 308.019 C 85.092 307.971,84.940 307.931,84.567 307.931 C 84.194 307.931,84.042 307.971,84.228 308.019 M80.358 308.213 C 80.544 308.261,80.849 308.261,81.035 308.213 C 81.222 308.164,81.069 308.124,80.697 308.124 C 80.324 308.124,80.172 308.164,80.358 308.213 M75.036 308.409 C 75.276 308.456,75.668 308.456,75.907 308.409 C 76.147 308.363,75.951 308.326,75.472 308.326 C 74.993 308.326,74.797 308.363,75.036 308.409 M84.132 340.733 C 84.690 340.772,85.605 340.772,86.164 340.733 C 86.722 340.694,86.265 340.662,85.148 340.662 C 84.030 340.662,83.573 340.694,84.132 340.733 M103.387 341.498 C 103.573 341.546,103.878 341.546,104.064 341.498 C 104.250 341.449,104.098 341.409,103.725 341.409 C 103.353 341.409,103.200 341.449,103.387 341.498 M110.263 341.701 C 110.825 341.740,111.696 341.740,112.198 341.700 C 112.700 341.660,112.240 341.628,111.176 341.628 C 110.111 341.629,109.701 341.661,110.263 341.701 M271.988 360.329 C 272.404 360.755,272.788 361.103,272.841 361.103 C 272.894 361.103,272.598 360.755,272.182 360.329 C 271.766 359.903,271.383 359.555,271.329 359.555 C 271.276 359.555,271.573 359.903,271.988 360.329 M41.026 372.001 C 41.026 372.034,41.309 372.317,41.655 372.629 L 42.284 373.198 41.715 372.569 C 41.185 371.983,41.026 371.851,41.026 372.001 " stroke="none" fill="#686464" fill-rule="evenodd"></path><path id="path3" d="M199.988 40.106 L 199.419 40.735 200.048 40.167 C 200.635 39.637,200.766 39.478,200.617 39.478 C 200.583 39.478,200.300 39.761,199.988 40.106 M189.840 97.013 C 189.840 97.046,190.123 97.329,190.469 97.642 L 191.098 98.210 190.530 97.581 C 190.000 96.995,189.840 96.863,189.840 97.013 M267.147 100.097 L 265.215 102.080 267.199 100.149 C 269.041 98.355,269.270 98.113,269.130 98.113 C 269.102 98.113,268.209 99.006,267.147 100.097 M231.144 130.092 L 230.576 130.721 231.205 130.152 C 231.791 129.623,231.923 129.463,231.773 129.463 C 231.740 129.463,231.457 129.746,231.144 130.092 M112.036 154.572 L 111.369 155.298 112.095 154.631 C 112.770 154.010,112.909 153.846,112.762 153.846 C 112.729 153.846,112.403 154.173,112.036 154.572 M107.983 158.587 C 107.513 159.066,107.171 159.458,107.225 159.458 C 107.278 159.458,107.706 159.066,108.176 158.587 C 108.646 158.108,108.987 157.716,108.934 157.716 C 108.881 157.716,108.453 158.108,107.983 158.587 M304.983 158.974 C 304.513 159.453,304.172 159.845,304.225 159.845 C 304.278 159.845,304.707 159.453,305.177 158.974 C 305.647 158.495,305.988 158.104,305.934 158.104 C 305.881 158.104,305.453 158.495,304.983 158.974 M294.618 165.119 L 294.049 165.747 294.678 165.179 C 295.265 164.649,295.396 164.490,295.247 164.490 C 295.213 164.490,294.930 164.773,294.618 165.119 M72.242 219.158 C 72.243 219.797,72.279 220.035,72.322 219.687 C 72.365 219.339,72.364 218.817,72.320 218.526 C 72.276 218.235,72.241 218.520,72.242 219.158 M81.132 228.295 C 81.425 228.340,81.904 228.340,82.196 228.295 C 82.489 228.251,82.250 228.215,81.664 228.215 C 81.079 228.215,80.839 228.251,81.132 228.295 M228.350 259.990 C 228.711 260.363,229.050 260.668,229.103 260.668 C 229.157 260.668,228.905 260.363,228.544 259.990 C 228.183 259.618,227.844 259.313,227.791 259.313 C 227.737 259.313,227.989 259.618,228.350 259.990 M189.695 289.635 C 189.881 289.684,190.186 289.684,190.373 289.635 C 190.559 289.586,190.406 289.547,190.034 289.547 C 189.661 289.547,189.509 289.586,189.695 289.635 M194.630 289.638 C 194.869 289.684,195.261 289.684,195.501 289.638 C 195.740 289.592,195.544 289.554,195.065 289.554 C 194.586 289.554,194.390 289.592,194.630 289.638 M119.485 293.614 L 118.916 294.243 119.545 293.674 C 119.891 293.362,120.174 293.079,120.174 293.046 C 120.174 292.896,120.014 293.028,119.485 293.614 M162.552 304.741 L 159.942 307.402 162.603 304.792 C 164.066 303.357,165.264 302.159,165.264 302.131 C 165.264 301.993,164.976 302.269,162.552 304.741 M84.228 308.019 C 84.415 308.068,84.719 308.068,84.906 308.019 C 85.092 307.971,84.940 307.931,84.567 307.931 C 84.194 307.931,84.042 307.971,84.228 308.019 M80.358 308.213 C 80.544 308.261,80.849 308.261,81.035 308.213 C 81.222 308.164,81.069 308.124,80.697 308.124 C 80.324 308.124,80.172 308.164,80.358 308.213 M75.036 308.409 C 75.276 308.456,75.668 308.456,75.907 308.409 C 76.147 308.363,75.951 308.326,75.472 308.326 C 74.993 308.326,74.797 308.363,75.036 308.409 M84.132 340.733 C 84.690 340.772,85.605 340.772,86.164 340.733 C 86.722 340.694,86.265 340.662,85.148 340.662 C 84.030 340.662,83.573 340.694,84.132 340.733 M103.387 341.498 C 103.573 341.546,103.878 341.546,104.064 341.498 C 104.250 341.449,104.098 341.409,103.725 341.409 C 103.353 341.409,103.200 341.449,103.387 341.498 M110.263 341.701 C 110.825 341.740,111.696 341.740,112.198 341.700 C 112.700 341.660,112.240 341.628,111.176 341.628 C 110.111 341.629,109.701 341.661,110.263 341.701 M271.988 360.329 C 272.404 360.755,272.788 361.103,272.841 361.103 C 272.894 361.103,272.598 360.755,272.182 360.329 C 271.766 359.903,271.383 359.555,271.329 359.555 C 271.276 359.555,271.573 359.903,271.988 360.329 M41.026 372.001 C 41.026 372.034,41.309 372.317,41.655 372.629 L 42.284 373.198 41.715 372.569 C 41.185 371.983,41.026 371.851,41.026 372.001 " stroke="none" fill="#686464" fill-rule="evenodd"></path><path id="path4" d="M199.988 40.106 L 199.419 40.735 200.048 40.167 C 200.635 39.637,200.766 39.478,200.617 39.478 C 200.583 39.478,200.300 39.761,199.988 40.106 M189.840 97.013 C 189.840 97.046,190.123 97.329,190.469 97.642 L 191.098 98.210 190.530 97.581 C 190.000 96.995,189.840 96.863,189.840 97.013 M267.147 100.097 L 265.215 102.080 267.199 100.149 C 269.041 98.355,269.270 98.113,269.130 98.113 C 269.102 98.113,268.209 99.006,267.147 100.097 M231.144 130.092 L 230.576 130.721 231.205 130.152 C 231.791 129.623,231.923 129.463,231.773 129.463 C 231.740 129.463,231.457 129.746,231.144 130.092 M112.036 154.572 L 111.369 155.298 112.095 154.631 C 112.770 154.010,112.909 153.846,112.762 153.846 C 112.729 153.846,112.403 154.173,112.036 154.572 M107.983 158.587 C 107.513 159.066,107.171 159.458,107.225 159.458 C 107.278 159.458,107.706 159.066,108.176 158.587 C 108.646 158.108,108.987 157.716,108.934 157.716 C 108.881 157.716,108.453 158.108,107.983 158.587 M304.983 158.974 C 304.513 159.453,304.172 159.845,304.225 159.845 C 304.278 159.845,304.707 159.453,305.177 158.974 C 305.647 158.495,305.988 158.104,305.934 158.104 C 305.881 158.104,305.453 158.495,304.983 158.974 M294.618 165.119 L 294.049 165.747 294.678 165.179 C 295.265 164.649,295.396 164.490,295.247 164.490 C 295.213 164.490,294.930 164.773,294.618 165.119 M72.242 219.158 C 72.243 219.797,72.279 220.035,72.322 219.687 C 72.365 219.339,72.364 218.817,72.320 218.526 C 72.276 218.235,72.241 218.520,72.242 219.158 M81.132 228.295 C 81.425 228.340,81.904 228.340,82.196 228.295 C 82.489 228.251,82.250 228.215,81.664 228.215 C 81.079 228.215,80.839 228.251,81.132 228.295 M228.350 259.990 C 228.711 260.363,229.050 260.668,229.103 260.668 C 229.157 260.668,228.905 260.363,228.544 259.990 C 228.183 259.618,227.844 259.313,227.791 259.313 C 227.737 259.313,227.989 259.618,228.350 259.990 M189.695 289.635 C 189.881 289.684,190.186 289.684,190.373 289.635 C 190.559 289.586,190.406 289.547,190.034 289.547 C 189.661 289.547,189.509 289.586,189.695 289.635 M194.630 289.638 C 194.869 289.684,195.261 289.684,195.501 289.638 C 195.740 289.592,195.544 289.554,195.065 289.554 C 194.586 289.554,194.390 289.592,194.630 289.638 M119.485 293.614 L 118.916 294.243 119.545 293.674 C 119.891 293.362,120.174 293.079,120.174 293.046 C 120.174 292.896,120.014 293.028,119.485 293.614 M162.552 304.741 L 159.942 307.402 162.603 304.792 C 164.066 303.357,165.264 302.159,165.264 302.131 C 165.264 301.993,164.976 302.269,162.552 304.741 M84.228 308.019 C 84.415 308.068,84.719 308.068,84.906 308.019 C 85.092 307.971,84.940 307.931,84.567 307.931 C 84.194 307.931,84.042 307.971,84.228 308.019 M80.358 308.213 C 80.544 308.261,80.849 308.261,81.035 308.213 C 81.222 308.164,81.069 308.124,80.697 308.124 C 80.324 308.124,80.172 308.164,80.358 308.213 M75.036 308.409 C 75.276 308.456,75.668 308.456,75.907 308.409 C 76.147 308.363,75.951 308.326,75.472 308.326 C 74.993 308.326,74.797 308.363,75.036 308.409 M84.132 340.733 C 84.690 340.772,85.605 340.772,86.164 340.733 C 86.722 340.694,86.265 340.662,85.148 340.662 C 84.030 340.662,83.573 340.694,84.132 340.733 M103.387 341.498 C 103.573 341.546,103.878 341.546,104.064 341.498 C 104.250 341.449,104.098 341.409,103.725 341.409 C 103.353 341.409,103.200 341.449,103.387 341.498 M110.263 341.701 C 110.825 341.740,111.696 341.740,112.198 341.700 C 112.700 341.660,112.240 341.628,111.176 341.628 C 110.111 341.629,109.701 341.661,110.263 341.701 M271.988 360.329 C 272.404 360.755,272.788 361.103,272.841 361.103 C 272.894 361.103,272.598 360.755,272.182 360.329 C 271.766 359.903,271.383 359.555,271.329 359.555 C 271.276 359.555,271.573 359.903,271.988 360.329 M41.026 372.001 C 41.026 372.034,41.309 372.317,41.655 372.629 L 42.284 373.198 41.715 372.569 C 41.185 371.983,41.026 371.851,41.026 372.001 " stroke="none" fill="#686464" fill-rule="evenodd"></path></g></svg>