<svg id="svg" version="1.1" xmlns="http://www.w3.org/2000/svg" xmlns:xlink="http://www.w3.org/1999/xlink" width="400" height="394.581519109821" viewBox="0, 0, 400,394.581519109821"><g id="svgg"><path id="path0" d="M234.736 23.352 C 219.449 24.893,203.866 34.045,192.441 48.193 C 180.539 62.931,176.827 76.338,181.779 86.696 C 183.513 90.323,184.670 91.775,190.714 97.920 C 193.384 100.634,195.761 103.171,195.997 103.559 L 196.426 104.264 195.753 112.848 C 194.610 127.423,194.431 129.360,194.211 129.506 C 193.194 130.179,188.890 130.726,180.842 131.202 C 136.666 133.820,118.114 143.177,94.311 174.843 C 75.125 200.367,67.512 221.367,75.576 226.525 C 83.932 231.871,95.065 225.393,113.680 204.354 C 127.355 188.899,141.838 179.277,155.174 176.789 C 163.000 175.329,166.230 179.872,165.775 191.703 C 165.151 207.935,160.703 220.933,147.804 244.219 C 143.900 251.267,140.321 258.449,137.581 264.731 C 125.256 292.991,111.189 305.441,89.161 307.586 C 86.365 307.859,83.826 307.996,72.762 308.471 C 51.059 309.402,43.156 313.072,39.566 323.884 C 35.352 336.576,34.758 357.373,38.329 367.167 C 40.079 371.966,42.559 374.258,46.174 374.420 C 53.350 374.742,60.118 367.250,69.279 348.845 C 72.753 341.865,72.565 342.039,77.600 341.140 C 79.485 340.803,91.905 340.797,97.049 341.130 C 115.799 342.344,125.187 341.461,131.301 337.907 C 135.727 335.336,139.454 331.588,149.349 319.757 C 152.006 316.581,154.371 313.764,154.605 313.498 C 154.838 313.232,155.960 311.949,157.099 310.648 C 166.806 299.546,176.399 292.479,184.463 290.489 C 200.690 286.485,229.743 295.158,253.679 311.154 C 259.198 314.842,259.821 316.411,261.726 331.405 C 263.786 347.623,266.209 354.436,271.985 360.247 C 282.919 371.247,310.523 374.149,321.787 365.482 C 328.164 360.575,328.521 352.568,322.535 348.696 C 320.392 347.310,317.883 346.555,311.369 345.336 C 303.118 343.792,300.715 342.919,299.006 340.847 C 298.204 339.873,298.160 339.660,296.361 328.108 C 292.373 302.487,285.612 289.646,271.505 280.897 C 266.298 277.668,260.671 275.028,249.347 270.501 C 232.151 263.627,227.786 260.975,226.501 256.622 C 223.554 246.641,231.298 224.207,240.154 217.073 C 242.374 215.284,243.422 214.871,246.638 214.519 C 270.775 211.878,292.748 205.615,304.305 198.082 C 309.785 194.510,313.176 193.538,322.593 192.840 C 334.897 191.927,339.420 189.481,343.346 181.616 C 351.781 164.720,342.721 147.437,325.399 147.378 C 318.136 147.353,314.284 149.283,307.494 156.351 C 303.879 160.114,303.731 160.225,301.817 160.618 C 298.116 161.376,294.973 164.149,288.491 172.374 C 284.936 176.885,284.334 177.159,277.987 177.151 C 269.809 177.140,262.204 174.797,256.134 170.416 C 250.380 166.263,246.138 164.241,238.220 161.878 C 231.173 159.775,229.592 158.813,228.160 155.752 C 225.678 150.448,225.718 138.473,228.233 133.581 C 229.353 131.403,233.747 127.577,246.638 117.558 C 271.880 97.938,281.495 86.438,284.254 72.569 C 289.786 44.764,265.158 20.286,234.736 23.352 " stroke="none" fill="#cccccc" fill-rule="evenodd"></path><path id="path1" d="" stroke="none" fill="#d0cccc" fill-rule="evenodd"></path><path id="path2" d="" stroke="none" fill="#d0cccc" fill-rule="evenodd"></path><path id="path3" d="" stroke="none" fill="#d0cccc" fill-rule="evenodd"></path><path id="path4" d="" stroke="none" fill="#d0cccc" fill-rule="evenodd"></path></g></svg>