<svg xmlns="http://www.w3.org/2000/svg" xmlns:xlink="http://www.w3.org/1999/xlink" version="1.1" width="256" height="256" viewBox="0 0 256 256" xml:space="preserve">
<desc>Created with Fabric.js 1.7.22</desc>
<defs>
</defs>
<g transform="translate(128 128) scale(0.72 0.72)" style="">
	<g style="stroke: none; stroke-width: 0; stroke-dasharray: none; stroke-linecap: butt; stroke-linejoin: miter; stroke-miterlimit: 10; fill: none; fill-rule: nonzero; opacity: 1;" transform="translate(-175.05 -175.05000000000004) scale(3.89 3.89)" >
	<circle cx="45.095" cy="45.095" r="40.565" style="stroke: none; stroke-width: 1; stroke-dasharray: none; stroke-linecap: butt; stroke-linejoin: miter; stroke-miterlimit: 10; fill: rgb(249,249,249); fill-rule: nonzero; opacity: 1;" transform="  matrix(1 0 0 1 0 0) "/>
	<path d="M 45.091 9.073 c 19.86 0 36.018 16.158 36.018 36.018 S 64.951 81.109 45.091 81.109 S 9.073 64.951 9.073 45.091 S 25.23 9.073 45.091 9.073 M 45.091 0.091 c -24.853 0 -45 20.147 -45 45 s 20.147 45 45 45 s 45 -20.147 45 -45 S 69.943 0.091 45.091 0.091 L 45.091 0.091 z" style="stroke: none; stroke-width: 1; stroke-dasharray: none; stroke-linecap: butt; stroke-linejoin: miter; stroke-miterlimit: 10; fill: rgb(240,84,37); fill-rule: nonzero; opacity: 1;" transform=" matrix(1 0 0 1 0 0) " stroke-linecap="round" />
	<path d="M 45.091 29.123 c 8.805 0 15.968 7.163 15.968 15.968 s -7.163 15.968 -15.968 15.968 s -15.968 -7.163 -15.968 -15.968 S 36.286 29.123 45.091 29.123 M 45.091 20.141 c -13.779 0 -24.95 11.17 -24.95 24.95 s 11.17 24.95 24.95 24.95 s 24.95 -11.17 24.95 -24.95 S 58.87 20.141 45.091 20.141 L 45.091 20.141 z" style="stroke: none; stroke-width: 1; stroke-dasharray: none; stroke-linecap: butt; stroke-linejoin: miter; stroke-miterlimit: 10; fill: rgb(240,84,37); fill-rule: nonzero; opacity: 1;" transform=" matrix(1 0 0 1 0 0) " stroke-linecap="round" />
	<path d="M 45.091 40.101 c -2.756 0 -4.99 2.234 -4.99 4.99 s 2.234 4.99 4.99 4.99 s 4.99 -2.234 4.99 -4.99 S 47.846 40.101 45.091 40.101 L 45.091 40.101 z" style="stroke: none; stroke-width: 1; stroke-dasharray: none; stroke-linecap: butt; stroke-linejoin: miter; stroke-miterlimit: 10; fill: rgb(240,84,37); fill-rule: nonzero; opacity: 1;" transform=" matrix(1 0 0 1 0 0) " stroke-linecap="round" />
	<path d="M 76.858 13.549 C 76.705 13.529 76.878 13.703 76.858 13.549 l -0.504 -2.352 L 43.683 43.676 c -0.781 0.777 -0.785 2.041 -0.007 2.822 c 0.39 0.393 0.902 0.589 1.415 0.589 c 0.509 0 1.018 -0.194 1.407 -0.581 L 79.77 13.437 L 76.858 13.549 z" style="stroke: none; stroke-width: 1; stroke-dasharray: none; stroke-linecap: butt; stroke-linejoin: miter; stroke-miterlimit: 10; fill: rgb(97,94,102); fill-rule: nonzero; opacity: 1;" transform=" matrix(1 0 0 1 0 0) " stroke-linecap="round" />
	<path d="M 82.865 6.841 l -0.846 -6.452 c -0.037 -0.281 -0.381 -0.398 -0.581 -0.197 L 74.95 6.679 c -0.075 0.075 -0.111 0.181 -0.097 0.286 l 0.915 6.973 c 0.02 0.154 0.141 0.275 0.295 0.295 l 6.973 0.915 c 0.105 0.014 0.211 -0.022 0.286 -0.097 l 6.488 -6.488 c 0.201 -0.201 0.084 -0.544 -0.197 -0.581 L 83.16 7.136 C 83.006 7.115 82.885 6.995 82.865 6.841 z" style="stroke: none; stroke-width: 1; stroke-dasharray: none; stroke-linecap: butt; stroke-linejoin: miter; stroke-miterlimit: 10; fill: rgb(77,210,244); fill-rule: evenodd; opacity: 1;" transform=" matrix(1 0 0 1 0 0) " stroke-linecap="round" />
</g>
</g>
</svg>